<?xml version="1.0" encoding="utf-8"?>
<!-- Generator: Adobe Illustrator 16.0.0, SVG Export Plug-In . SVG Version: 6.00 Build 0)  -->
<!DOCTYPE svg PUBLIC "-//W3C//DTD SVG 1.1//EN" "http://www.w3.org/Graphics/SVG/1.1/DTD/svg11.dtd">
<svg version="1.1" id="Layer_1" xmlns="http://www.w3.org/2000/svg" xmlns:xlink="http://www.w3.org/1999/xlink" x="0px" y="0px"
	 width="76.989px" height="28.009px" viewBox="0 0 76.989 28.009" enable-background="new 0 0 76.989 28.009" xml:space="preserve">
<g>
	<path fill-rule="evenodd" clip-rule="evenodd" d="M1.976,12.833h74.027c0.545,0,0.986,0.442,0.986,0.986v0.027
		c0,0.545-0.441,0.986-0.986,0.986H1.976c-0.545,0-0.987-0.441-0.987-0.986V13.82C0.989,13.275,1.431,12.833,1.976,12.833z"/>
	<path fill-rule="evenodd" clip-rule="evenodd" d="M13.646,27.72L0.918,15.162c-0.39-0.387-0.39-1.011,0-1.396
		c0.391-0.385,1.024-0.385,1.415,0L15.06,26.326c0.391,0.385,0.391,1.01,0,1.395C14.669,28.106,14.037,28.106,13.646,27.72z"/>
	<path fill-rule="evenodd" clip-rule="evenodd" d="M14.711,1.717L1.74,14.517c-0.398,0.393-1.043,0.393-1.441,0s-0.398-1.03,0-1.423
		L13.27,0.295c0.398-0.393,1.043-0.393,1.441,0C15.109,0.688,15.109,1.324,14.711,1.717z"/>
</g>
</svg>
