<?xml version="1.0" encoding="utf-8"?>
<!-- Generator: Adobe Illustrator 16.0.0, SVG Export Plug-In . SVG Version: 6.00 Build 0)  -->
<!DOCTYPE svg PUBLIC "-//W3C//DTD SVG 1.1//EN" "http://www.w3.org/Graphics/SVG/1.1/DTD/svg11.dtd">
<svg version="1.1" id="Layer_1" xmlns="http://www.w3.org/2000/svg" xmlns:xlink="http://www.w3.org/1999/xlink" x="0px" y="0px"
	 width="76.989px" height="28.009px" viewBox="0 0 76.989 28.009" enable-background="new 0 0 76.989 28.009" xml:space="preserve">
<g>
	<path fill-rule="evenodd" clip-rule="evenodd" d="M76.001,13.82v0.027c0,0.545-0.441,0.986-0.986,0.986H0.987
		c-0.545,0-0.986-0.441-0.986-0.986V13.82c0-0.544,0.441-0.986,0.986-0.986h74.027C75.56,12.833,76.001,13.275,76.001,13.82z"/>
	<path fill-rule="evenodd" clip-rule="evenodd" d="M61.931,27.72c-0.391-0.385-0.391-1.01,0-1.395l12.727-12.561
		c0.391-0.385,1.024-0.385,1.415,0c0.39,0.386,0.39,1.01,0,1.396L63.345,27.72C62.954,28.106,62.321,28.106,61.931,27.72z"/>
	<path fill-rule="evenodd" clip-rule="evenodd" d="M62.278,0.295c0.398-0.393,1.044-0.393,1.441,0l12.972,12.799
		c0.397,0.393,0.397,1.03,0,1.423s-1.044,0.393-1.441,0l-12.972-12.8C61.881,1.324,61.881,0.688,62.278,0.295z"/>
</g>
</svg>
