<?xml version="1.0" encoding="utf-8"?>
<!-- Generator: Adobe Illustrator 16.0.0, SVG Export Plug-In . SVG Version: 6.00 Build 0)  -->
<!DOCTYPE svg PUBLIC "-//W3C//DTD SVG 1.1//EN" "http://www.w3.org/Graphics/SVG/1.1/DTD/svg11.dtd">
<svg version="1.1" id="Layer_1" xmlns="http://www.w3.org/2000/svg" xmlns:xlink="http://www.w3.org/1999/xlink" x="0px" y="0px"
	 width="39.417px" height="42px" viewBox="0 0 39.417 42" enable-background="new 0 0 39.417 42" xml:space="preserve">
<g>
	<path d="M30.018,27.765c-0.457-0.297-0.596-0.914-0.306-1.379C34.642,18.438,29.018,8,19.706,8C10.417,8,4.779,18.394,9.684,26.363
		c0.29,0.467,0.147,1.082-0.313,1.377c-0.462,0.295-1.069,0.15-1.357-0.316C2.291,18.122,8.868,6,19.706,6
		c10.875,0,17.425,12.184,11.67,21.453C31.087,27.921,30.474,28.058,30.018,27.765z"/>
	<path d="M5.201,33.527C-6.328,20.787,2.546,0,19.706,0c17.11,0,26.028,20.693,14.559,33.468c-0.365,0.406-0.988,0.436-1.393,0.063
		c-0.4-0.373-0.431-1.004-0.065-1.41C43.116,20.64,35.117,2,19.706,2C4.246,2-3.707,20.726,6.651,32.175
		c0.368,0.406,0.34,1.039-0.06,1.414C6.19,33.96,5.569,33.937,5.201,33.527z"/>
	<path d="M17.736,17.962c0-1.105,0.88-2,1.97-2c1.088,0,1.969,0.895,1.969,2v9.506l7.72,2.34c1.289,0.379,2.063,1.711,1.762,3.039
		c-0.258,1.129-1.469,8.004-1.675,9.152H17.429l-6.027-9.18c-2.394-3.715,3.616-5.004,6.335,1.18V17.962z"/>
</g>
</svg>
